<svg width="29" height="29" viewBox="0 0 29 29" fill="none" xmlns="http://www.w3.org/2000/svg">
<circle cx="14.5" cy="14.5" r="14" stroke="#30904E"/>
<path d="M10.8156 13.0589C11.9356 15.26 13.74 17.0644 15.9411 18.1844L17.6522 16.4733C17.87 16.2556 18.1733 16.1933 18.4456 16.2789C19.3167 16.5667 20.25 16.7222 21.2222 16.7222C21.4285 16.7222 21.6263 16.8042 21.7722 16.95C21.9181 17.0959 22 17.2937 22 17.5V20.2222C22 20.4285 21.9181 20.6263 21.7722 20.7722C21.6263 20.9181 21.4285 21 21.2222 21C17.7155 21 14.3523 19.6069 11.8727 17.1273C9.39305 14.6477 8 11.2845 8 7.77778C8 7.5715 8.08194 7.37367 8.22781 7.22781C8.37367 7.08194 8.5715 7 8.77778 7H11.5C11.7063 7 11.9041 7.08194 12.05 7.22781C12.1958 7.37367 12.2778 7.5715 12.2778 7.77778C12.2778 8.75 12.4333 9.68333 12.7211 10.5544C12.8067 10.8267 12.7444 11.13 12.5267 11.3478L10.8156 13.0589Z" fill="#6B6767"/>
</svg>
