<svg width="29" height="29" viewBox="0 0 29 29" fill="none" xmlns="http://www.w3.org/2000/svg">
<circle cx="14.5" cy="14.5" r="14" stroke="#30904E"/>
<path d="M15 14.55C14.4317 14.55 13.8866 14.3129 13.4848 13.891C13.0829 13.469 12.8571 12.8967 12.8571 12.3C12.8571 11.7033 13.0829 11.131 13.4848 10.709C13.8866 10.2871 14.4317 10.05 15 10.05C15.5683 10.05 16.1134 10.2871 16.5152 10.709C16.9171 11.131 17.1429 11.7033 17.1429 12.3C17.1429 12.5955 17.0874 12.8881 16.9797 13.161C16.8721 13.434 16.7142 13.6821 16.5152 13.891C16.3162 14.0999 16.08 14.2657 15.82 14.3787C15.5601 14.4918 15.2814 14.55 15 14.55ZM15 6C13.4087 6 11.8826 6.66375 10.7574 7.84523C9.63214 9.02671 9 10.6291 9 12.3C9 17.025 15 24 15 24C15 24 21 17.025 21 12.3C21 10.6291 20.3679 9.02671 19.2426 7.84523C18.1174 6.66375 16.5913 6 15 6Z" fill="#6B6767"/>
</svg>
