<svg width="29" height="29" viewBox="0 0 29 29" fill="none" xmlns="http://www.w3.org/2000/svg">
<circle cx="14.5" cy="14.5" r="14" stroke="#30904E"/>
<path d="M15.0322 6C10.6422 6 7.06432 9.56 7.06432 13.928C7.06432 15.328 7.43417 16.688 8.12563 17.888L7 22L11.2211 20.896C12.3869 21.528 13.6975 21.864 15.0322 21.864C19.4221 21.864 23 18.304 23 13.936C23 11.816 22.1719 9.824 20.6683 8.328C19.1648 6.824 17.1628 6 15.0322 6ZM15.0402 7.336C16.809 7.336 18.4653 8.024 19.7196 9.272C20.9658 10.52 21.6573 12.176 21.6573 13.936C21.6573 17.568 18.6824 20.52 15.0322 20.52C13.8422 20.52 12.6764 20.208 11.6633 19.6L11.4221 19.464L8.91357 20.12L9.5809 17.688L9.4201 17.432C8.7608 16.4 8.40704 15.176 8.40704 13.928C8.41508 10.296 11.3819 7.336 15.0402 7.336ZM12.21 10.264C12.0814 10.264 11.8643 10.312 11.6794 10.512C11.5025 10.712 10.9799 11.2 10.9799 12.168C10.9799 13.144 11.6955 14.08 11.7839 14.216C11.8965 14.352 13.199 16.352 15.201 17.2C15.6754 17.416 16.0452 17.536 16.3347 17.624C16.809 17.776 17.2432 17.752 17.5889 17.704C17.9749 17.648 18.7628 17.224 18.9317 16.76C19.1005 16.296 19.1005 15.904 19.0523 15.816C18.996 15.736 18.8673 15.688 18.6663 15.6C18.4653 15.488 17.4844 15.008 17.3075 14.944C17.1226 14.88 17.01 14.848 16.8573 15.04C16.7286 15.24 16.3427 15.688 16.2302 15.816C16.1095 15.952 15.997 15.968 15.804 15.872C15.595 15.768 14.9518 15.56 14.196 14.888C13.601 14.36 13.207 13.712 13.0864 13.512C12.9899 13.32 13.0784 13.2 13.1749 13.112C13.2633 13.024 13.392 12.88 13.4724 12.76C13.5769 12.648 13.609 12.56 13.6734 12.432C13.7377 12.296 13.7055 12.184 13.6573 12.088C13.609 12 13.207 11.008 13.0382 10.616C12.8774 10.232 12.7166 10.28 12.5879 10.272C12.4754 10.272 12.3467 10.264 12.21 10.264Z" fill="#6B6767"/>
</svg>
